<svg width="34" height="34" viewBox="0 0 34 34" fill="none" xmlns="http://www.w3.org/2000/svg">
<path d="M14.154 19.808C14.154 21.2728 13.0915 21.7357 11.7862 21.7357H8.36339V17.721H11.8545C13.2661 17.7286 14.154 18.3129 14.154 19.808V19.808ZM13.5696 13.5621C13.5696 12.2187 12.5299 11.9 11.3763 11.9H8.37098V15.3H11.6116C12.7576 15.3 13.5696 14.7991 13.5696 13.5621V13.5621ZM23.6103 15.3228C22.2214 15.3228 21.2955 16.1879 21.2045 17.5768H25.925C25.796 16.1728 25.0674 15.3228 23.6103 15.3228ZM34 3.64286V30.3571C34 32.3683 32.3683 34 30.3571 34H3.64286C1.6317 34 0 32.3683 0 30.3571V3.64286C0 1.6317 1.6317 0 3.64286 0H30.3571C32.3683 0 34 1.6317 34 3.64286ZM20.6201 11.6116H26.5246V10.1772H20.6201V11.6116ZM17.3567 19.9826C17.3567 18.1536 16.4915 16.575 14.7004 16.0665C16.0058 15.4442 16.6888 14.7232 16.6888 13.2585C16.6888 10.3594 14.5259 9.65357 12.029 9.65357H5.16071V24.225H12.2263C14.875 24.2098 17.3567 22.9424 17.3567 19.9826V19.9826ZM28.8393 18.8594C28.8393 15.7402 27.0103 13.1371 23.7089 13.1371C20.4911 13.1371 18.3129 15.5504 18.3129 18.7228C18.3129 22.0089 20.3848 24.2629 23.7089 24.2629C26.2286 24.2629 27.8603 23.1321 28.6496 20.7112H26.092C25.8112 21.6143 24.6804 22.0848 23.8 22.0848C22.1 22.0848 21.2121 21.0906 21.2121 19.4058H28.8165C28.8241 19.2313 28.8393 19.0415 28.8393 18.8594Z" fill="#E8E8E8"/>
</svg>
