<svg width="33" height="34" viewBox="0 0 33 34" fill="none" xmlns="http://www.w3.org/2000/svg">
<path d="M6.6442 14.9367C7.29978 11.7898 9.39911 9.16992 12.2203 7.83398C12.4855 8.19766 14.2828 10.7137 15.9549 13.6973C11.2406 14.959 7.09353 14.9441 6.6442 14.9367V14.9367ZM23.1737 9.42969C20.6987 7.21797 17.3324 6.3793 14.1429 7.15859C14.4228 7.53711 16.2496 10.0457 17.8996 13.0961C21.4795 11.7379 22.9895 9.68945 23.1737 9.42969ZM10.3199 25.0156C13.3031 27.3609 17.1924 27.7395 20.4335 26.3516C20.2862 25.4609 19.6969 22.3586 18.2826 18.6625C14.2239 20.0578 11.3732 22.8484 10.3199 25.0156ZM17.5975 16.9852C17.3471 16.4063 17.0672 15.8348 16.7799 15.2633C11.7563 16.7773 6.87991 16.718 6.43795 16.7031C6.43795 16.807 6.43058 16.9109 6.43058 17.0148C6.43058 19.6199 7.41027 21.9949 9.01607 23.7984C10.6513 20.9855 13.9587 18.0168 17.5975 16.9852V16.9852ZM20.1683 18.1949C21.4868 21.8391 22.0172 24.8078 22.1203 25.4238C24.3817 23.8875 25.9875 21.4457 26.4368 18.6254C26.098 18.5141 23.321 17.6828 20.1683 18.1949V18.1949ZM18.673 14.6027C19.0266 15.3301 19.2844 15.9238 19.5569 16.5918C22.9085 16.1688 26.2379 16.8441 26.5694 16.9184C26.5473 14.5211 25.7002 12.3242 24.2933 10.6023C24.0797 10.8918 22.3929 13.0664 18.673 14.6027V14.6027ZM33 3.9375V30.0625C33 32.0293 31.4163 33.625 29.4643 33.625H3.53571C1.58371 33.625 0 32.0293 0 30.0625V3.9375C0 1.9707 1.58371 0.375 3.53571 0.375H29.4643C31.4163 0.375 33 1.9707 33 3.9375ZM28.2857 17C28.2857 10.4539 22.9969 5.125 16.5 5.125C10.0031 5.125 4.71429 10.4539 4.71429 17C4.71429 23.5461 10.0031 28.875 16.5 28.875C22.9969 28.875 28.2857 23.5461 28.2857 17Z" fill="#E8E8E8"/>
</svg>
