<svg width="33" height="34" viewBox="0 0 33 34" fill="none" xmlns="http://www.w3.org/2000/svg">
<path d="M29.4643 0.375H3.53571C1.58371 0.375 0 1.9707 0 3.9375V30.0625C0 32.0293 1.58371 33.625 3.53571 33.625H29.4643C31.4163 33.625 33 32.0293 33 30.0625V3.9375C33 1.9707 31.4163 0.375 29.4643 0.375ZM20.4261 28.8527C19.8074 28.9641 19.579 28.5781 19.579 28.259C19.579 27.8582 19.5938 25.8098 19.5938 24.1547C19.5938 22.9969 19.2107 22.2621 18.7614 21.8762C21.4868 21.5719 24.3596 21.1934 24.3596 16.4508C24.3596 15.1 23.8808 14.4246 23.1 13.5563C23.2252 13.2371 23.6451 11.9234 22.9748 10.2164C21.9509 9.89727 19.6085 11.5449 19.6085 11.5449C18.6362 11.2703 17.5828 11.1293 16.5442 11.1293C15.5056 11.1293 14.4522 11.2703 13.4799 11.5449C13.4799 11.5449 11.1375 9.89727 10.1136 10.2164C9.4433 11.916 9.8558 13.2297 9.98839 13.5563C9.20759 14.4246 8.83929 15.1 8.83929 16.4508C8.83929 21.1711 11.5868 21.5719 14.3123 21.8762C13.9587 22.1953 13.642 22.7445 13.5315 23.5312C12.8317 23.8504 11.0417 24.3996 9.97366 22.4996C9.30335 21.327 8.09531 21.2305 8.09531 21.2305C6.90201 21.2156 8.01429 21.9875 8.01429 21.9875C8.80982 22.3586 9.36964 23.7836 9.36964 23.7836C10.0842 25.9879 13.502 25.2457 13.502 25.2457C13.502 26.2773 13.5167 27.9547 13.5167 28.259C13.5167 28.5781 13.2958 28.9641 12.6696 28.8527C7.80804 27.2125 4.40491 22.5516 4.40491 17.1039C4.40491 10.2906 9.57589 5.11758 16.3379 5.11758C23.1 5.11758 28.5804 10.2906 28.5804 17.1039C28.5877 22.5516 25.2877 27.2199 20.4261 28.8527ZM13.2 24.318C13.06 24.3477 12.9275 24.2883 12.9127 24.1918C12.898 24.0805 12.9938 23.984 13.1337 23.9543C13.2737 23.9395 13.4063 23.9988 13.421 24.0953C13.4431 24.1918 13.3473 24.2883 13.2 24.318ZM12.5002 24.2512C12.5002 24.3477 12.3897 24.4293 12.2424 24.4293C12.0804 24.4441 11.9699 24.3625 11.9699 24.2512C11.9699 24.1547 12.0804 24.073 12.2277 24.073C12.3676 24.0582 12.5002 24.1398 12.5002 24.2512ZM11.4911 24.1695C11.4616 24.266 11.3143 24.3105 11.1891 24.266C11.0491 24.2363 10.9533 24.125 10.9828 24.0285C11.0123 23.932 11.1596 23.8875 11.2848 23.9172C11.4321 23.9617 11.5279 24.073 11.4911 24.1695ZM10.585 23.7688C10.5188 23.8504 10.3788 23.8355 10.2683 23.7242C10.1578 23.6277 10.1283 23.4867 10.202 23.4199C10.2683 23.3383 10.4083 23.3531 10.5188 23.4645C10.6145 23.5609 10.6513 23.7094 10.585 23.7688ZM9.91473 23.0934C9.84844 23.1379 9.72321 23.0934 9.64219 22.982C9.56116 22.8707 9.56116 22.7445 9.64219 22.6926C9.72321 22.6258 9.84844 22.6777 9.91473 22.7891C9.99576 22.9004 9.99576 23.034 9.91473 23.0934V23.0934ZM9.43594 22.3734C9.36964 22.4402 9.25915 22.4031 9.17813 22.3289C9.0971 22.2324 9.08237 22.1211 9.14866 22.0691C9.21496 22.0023 9.32545 22.0395 9.40647 22.1137C9.4875 22.2102 9.50223 22.3215 9.43594 22.3734ZM8.94241 21.8242C8.91295 21.891 8.81719 21.9059 8.73616 21.8539C8.6404 21.8094 8.59621 21.7277 8.62567 21.6609C8.65513 21.6164 8.73616 21.5941 8.83192 21.6312C8.92768 21.6832 8.97188 21.7648 8.94241 21.8242Z" fill="#E8E8E8"/>
</svg>
