<svg width="34" height="38" viewBox="0 0 34 38" fill="none" xmlns="http://www.w3.org/2000/svg">
<path d="M31.5714 2.375H2.42098C1.08527 2.375 0 3.45117 0 4.77227V33.2277C0 34.5488 1.08527 35.625 2.42098 35.625H31.5714C32.9071 35.625 34 34.5488 34 33.2277V4.77227C34 3.45117 32.9071 2.375 31.5714 2.375ZM10.2759 30.875H5.23661V15.007H10.2835V30.875H10.2759ZM7.75625 12.8398C6.13973 12.8398 4.83438 11.5559 4.83438 9.98242C4.83438 8.40898 6.13973 7.125 7.75625 7.125C9.36518 7.125 10.6781 8.40898 10.6781 9.98242C10.6781 11.5633 9.37277 12.8398 7.75625 12.8398V12.8398ZM29.1656 30.875H24.1263V23.1562C24.1263 21.3156 24.0884 18.948 21.508 18.948C18.8821 18.948 18.4799 20.952 18.4799 23.0227V30.875H13.4406V15.007H18.275V17.1742H18.3433C19.0188 15.9273 20.6656 14.6137 23.117 14.6137C28.217 14.6137 29.1656 17.9016 29.1656 22.1766V30.875V30.875Z" fill="#E8E8E8"/>
</svg>
