<svg width="335" height="40" viewBox="0 0 335 40" fill="none" xmlns="http://www.w3.org/2000/svg">
<path d="M21.64 39L19.912 31.848H10.216L8.53601 39H0.376007L10.408 5.736H19.96L29.992 39H21.64ZM11.56 26.136H18.568L15.064 11.448L11.56 26.136Z" fill="#3E3E3E"/>
<path d="M61.1845 12.696C63.2005 12.696 64.8165 13.384 66.0325 14.76C67.2485 16.104 67.8565 17.976 67.8565 20.376V39H60.2725V21.672C60.2725 19.4 59.5525 18.264 58.1125 18.264C57.3125 18.264 56.6085 18.536 56.0005 19.08C55.3925 19.624 54.8005 20.456 54.2245 21.576V39H46.6405V21.672C46.6405 19.4 45.9205 18.264 44.4805 18.264C43.7125 18.264 43.0085 18.552 42.3685 19.128C41.7605 19.672 41.1685 20.488 40.5925 21.576V39H33.0085V13.512H39.6325L40.1605 16.488C41.1525 15.208 42.2405 14.264 43.4245 13.656C44.6405 13.016 46.0165 12.696 47.5525 12.696C48.9925 12.696 50.2245 13.048 51.2485 13.752C52.3045 14.456 53.0725 15.448 53.5525 16.728C54.5765 15.352 55.6965 14.344 56.9125 13.704C58.1605 13.032 59.5845 12.696 61.1845 12.696Z" fill="#3E3E3E"/>
<path d="M94.5314 31.608C94.5314 32.568 94.6594 33.272 94.9154 33.72C95.2034 34.168 95.6514 34.504 96.2594 34.728L94.6754 39.672C93.1074 39.544 91.8274 39.208 90.8354 38.664C89.8434 38.088 89.0754 37.192 88.5314 35.976C86.8674 38.536 84.3074 39.816 80.8514 39.816C78.3234 39.816 76.3074 39.08 74.8034 37.608C73.2994 36.136 72.5474 34.216 72.5474 31.848C72.5474 29.064 73.5714 26.936 75.6194 25.464C77.6674 23.992 80.6274 23.256 84.4994 23.256H87.0914V22.152C87.0914 20.648 86.7714 19.624 86.1314 19.08C85.4914 18.504 84.3714 18.216 82.7714 18.216C81.9394 18.216 80.9314 18.344 79.7474 18.6C78.5634 18.824 77.3474 19.144 76.0994 19.56L74.3714 14.568C75.9714 13.96 77.6034 13.496 79.2674 13.176C80.9634 12.856 82.5314 12.696 83.9714 12.696C87.6194 12.696 90.2914 13.448 91.9874 14.952C93.6834 16.456 94.5314 18.712 94.5314 21.72V31.608ZM83.0594 34.392C84.7874 34.392 86.1314 33.576 87.0914 31.944V27.432H85.2194C83.4914 27.432 82.1954 27.736 81.3314 28.344C80.4994 28.952 80.0834 29.896 80.0834 31.176C80.0834 32.2 80.3394 33 80.8514 33.576C81.3954 34.12 82.1314 34.392 83.0594 34.392Z" fill="#3E3E3E"/>
<path d="M116.22 12.696C118.428 12.696 120.156 13.368 121.404 14.712C122.652 16.056 123.276 17.944 123.276 20.376V39H115.692V21.672C115.692 20.392 115.484 19.512 115.068 19.032C114.684 18.52 114.092 18.264 113.292 18.264C111.756 18.264 110.284 19.368 108.876 21.576V39H101.292V13.512H107.916L108.444 16.536C109.532 15.256 110.7 14.296 111.948 13.656C113.228 13.016 114.652 12.696 116.22 12.696Z" fill="#3E3E3E"/>
<path d="M152.563 3.38399V39H145.843L145.459 36.024C143.667 38.552 141.251 39.816 138.211 39.816C135.043 39.816 132.627 38.6 130.963 36.168C129.331 33.736 128.515 30.408 128.515 26.184C128.515 23.592 128.947 21.272 129.811 19.224C130.675 17.176 131.891 15.576 133.459 14.424C135.059 13.272 136.883 12.696 138.931 12.696C141.363 12.696 143.379 13.496 144.979 15.096V2.56799L152.563 3.38399ZM140.563 34.248C142.323 34.248 143.795 33.288 144.979 31.368V20.376C144.371 19.64 143.747 19.096 143.107 18.744C142.499 18.392 141.795 18.216 140.995 18.216C139.587 18.216 138.467 18.872 137.635 20.184C136.803 21.496 136.387 23.512 136.387 26.232C136.387 29.208 136.739 31.288 137.443 32.472C138.179 33.656 139.219 34.248 140.563 34.248Z" fill="#3E3E3E"/>
<path d="M179.473 31.608C179.473 32.568 179.601 33.272 179.857 33.72C180.145 34.168 180.593 34.504 181.201 34.728L179.617 39.672C178.049 39.544 176.769 39.208 175.777 38.664C174.785 38.088 174.017 37.192 173.473 35.976C171.809 38.536 169.249 39.816 165.793 39.816C163.265 39.816 161.249 39.08 159.745 37.608C158.241 36.136 157.489 34.216 157.489 31.848C157.489 29.064 158.513 26.936 160.561 25.464C162.609 23.992 165.569 23.256 169.441 23.256H172.033V22.152C172.033 20.648 171.713 19.624 171.073 19.08C170.433 18.504 169.313 18.216 167.713 18.216C166.881 18.216 165.873 18.344 164.689 18.6C163.505 18.824 162.289 19.144 161.041 19.56L159.313 14.568C160.913 13.96 162.545 13.496 164.209 13.176C165.905 12.856 167.473 12.696 168.913 12.696C172.561 12.696 175.233 13.448 176.929 14.952C178.625 16.456 179.473 18.712 179.473 21.72V31.608ZM168.001 34.392C169.729 34.392 171.073 33.576 172.033 31.944V27.432H170.161C168.433 27.432 167.137 27.736 166.273 28.344C165.441 28.952 165.025 29.896 165.025 31.176C165.025 32.2 165.281 33 165.793 33.576C166.337 34.12 167.073 34.392 168.001 34.392Z" fill="#3E3E3E"/>
<path d="M198.488 39V5.736H218.312L217.496 11.352H206.36V20.184H216.056V25.8H206.36V39H198.488Z" fill="#3E3E3E"/>
<path d="M239.851 31.608C239.851 32.568 239.979 33.272 240.235 33.72C240.523 34.168 240.971 34.504 241.579 34.728L239.995 39.672C238.427 39.544 237.147 39.208 236.155 38.664C235.163 38.088 234.395 37.192 233.851 35.976C232.187 38.536 229.627 39.816 226.171 39.816C223.643 39.816 221.627 39.08 220.123 37.608C218.619 36.136 217.867 34.216 217.867 31.848C217.867 29.064 218.891 26.936 220.939 25.464C222.987 23.992 225.947 23.256 229.819 23.256H232.411V22.152C232.411 20.648 232.091 19.624 231.451 19.08C230.811 18.504 229.691 18.216 228.091 18.216C227.259 18.216 226.251 18.344 225.067 18.6C223.883 18.824 222.667 19.144 221.419 19.56L219.691 14.568C221.291 13.96 222.923 13.496 224.587 13.176C226.283 12.856 227.851 12.696 229.291 12.696C232.939 12.696 235.611 13.448 237.307 14.952C239.003 16.456 239.851 18.712 239.851 21.72V31.608ZM228.379 34.392C230.107 34.392 231.451 33.576 232.411 31.944V27.432H230.539C228.811 27.432 227.515 27.736 226.651 28.344C225.819 28.952 225.403 29.896 225.403 31.176C225.403 32.2 225.659 33 226.171 33.576C226.715 34.12 227.451 34.392 228.379 34.392Z" fill="#3E3E3E"/>
<path d="M252.911 39.816C250.703 39.816 248.976 39.192 247.728 37.944C246.512 36.664 245.904 34.856 245.904 32.52V3.38399L253.488 2.56799V32.232C253.488 33.288 253.92 33.816 254.784 33.816C255.232 33.816 255.648 33.736 256.032 33.576L257.52 38.952C256.143 39.528 254.607 39.816 252.911 39.816Z" fill="#3E3E3E"/>
<path d="M271.919 12.696C273.679 12.696 275.263 12.952 276.671 13.464C278.079 13.976 279.407 14.76 280.655 15.816L277.391 20.328C275.791 19.112 274.175 18.504 272.543 18.504C270.847 18.504 269.567 19.128 268.703 20.376C267.839 21.624 267.407 23.64 267.407 26.424C267.407 29.112 267.839 31.016 268.703 32.136C269.567 33.256 270.815 33.816 272.447 33.816C273.311 33.816 274.095 33.688 274.799 33.432C275.503 33.144 276.351 32.696 277.343 32.088L280.655 36.792C278.127 38.808 275.263 39.816 272.063 39.816C269.471 39.816 267.231 39.272 265.343 38.184C263.455 37.064 261.999 35.512 260.975 33.528C259.951 31.512 259.439 29.16 259.439 26.472C259.439 23.784 259.951 21.4 260.975 19.32C261.999 17.24 263.455 15.624 265.343 14.472C267.231 13.288 269.423 12.696 271.919 12.696Z" fill="#3E3E3E"/>
<path d="M304.355 31.608C304.355 32.568 304.483 33.272 304.739 33.72C305.027 34.168 305.475 34.504 306.083 34.728L304.499 39.672C302.931 39.544 301.651 39.208 300.659 38.664C299.667 38.088 298.899 37.192 298.355 35.976C296.691 38.536 294.131 39.816 290.675 39.816C288.147 39.816 286.131 39.08 284.627 37.608C283.123 36.136 282.371 34.216 282.371 31.848C282.371 29.064 283.395 26.936 285.443 25.464C287.491 23.992 290.451 23.256 294.323 23.256H296.915V22.152C296.915 20.648 296.595 19.624 295.955 19.08C295.315 18.504 294.195 18.216 292.595 18.216C291.763 18.216 290.755 18.344 289.571 18.6C288.387 18.824 287.171 19.144 285.923 19.56L284.195 14.568C285.795 13.96 287.427 13.496 289.091 13.176C290.787 12.856 292.355 12.696 293.795 12.696C297.443 12.696 300.115 13.448 301.811 14.952C303.507 16.456 304.355 18.712 304.355 21.72V31.608ZM292.883 34.392C294.611 34.392 295.955 33.576 296.915 31.944V27.432H295.043C293.315 27.432 292.019 27.736 291.155 28.344C290.323 28.952 289.907 29.896 289.907 31.176C289.907 32.2 290.163 33 290.675 33.576C291.219 34.12 291.955 34.392 292.883 34.392ZM296.915 8.51999C296.211 8.51999 295.603 8.40799 295.091 8.184C294.579 7.95999 294.019 7.63999 293.411 7.22399C292.611 6.64799 291.955 6.36 291.443 6.36C290.899 6.36 290.435 6.536 290.051 6.88799C289.699 7.20799 289.315 7.73599 288.899 8.47199L285.107 6.64799C285.747 4.984 286.595 3.62399 287.651 2.56799C288.739 1.51199 289.955 0.983994 291.299 0.983994C292.035 0.983994 292.659 1.11199 293.171 1.36799C293.715 1.592 294.307 1.91199 294.947 2.32799C295.395 2.61599 295.747 2.82399 296.003 2.95199C296.291 3.07999 296.579 3.14399 296.867 3.14399C297.379 3.14399 297.811 2.98399 298.163 2.66399C298.547 2.312 298.947 1.768 299.363 1.032L303.155 2.90399C302.483 4.59999 301.603 5.95999 300.515 6.98399C299.459 8.00799 298.259 8.51999 296.915 8.51999Z" fill="#3E3E3E"/>
<path d="M322.156 12.696C326.06 12.696 329.116 13.896 331.324 16.296C333.532 18.664 334.636 21.992 334.636 26.28C334.636 29 334.124 31.384 333.1 33.432C332.108 35.448 330.668 37.016 328.78 38.136C326.924 39.256 324.716 39.816 322.156 39.816C318.284 39.816 315.228 38.632 312.988 36.264C310.78 33.864 309.676 30.52 309.676 26.232C309.676 23.512 310.172 21.144 311.164 19.128C312.188 17.08 313.628 15.496 315.484 14.376C317.372 13.256 319.596 12.696 322.156 12.696ZM322.156 18.264C320.62 18.264 319.468 18.92 318.7 20.232C317.932 21.512 317.548 23.512 317.548 26.232C317.548 29.016 317.916 31.048 318.652 32.328C319.42 33.608 320.588 34.248 322.156 34.248C323.692 34.248 324.844 33.608 325.612 32.328C326.38 31.016 326.764 29 326.764 26.28C326.764 23.496 326.38 21.464 325.612 20.184C324.876 18.904 323.724 18.264 322.156 18.264Z" fill="#3E3E3E"/>
</svg>
